<!-- icon666.com - MILLIONS vector ICONS FREE --><svg id="Layer_1" enable-background="new 0 0 64 64" viewBox="0 0 64 64" xmlns="http://www.w3.org/2000/svg"><g><path d="m31.9 15.9c-8.9 0-16.1 7.2-16.1 16.1s7.2 16.1 16.1 16.1 16.1-7.2 16.1-16.1-7.2-16.1-16.1-16.1zm0 28.2c-6.7 0-12.1-5.4-12.1-12.1s5.4-12.1 12.1-12.1 12.1 5.4 12.1 12.1-5.4 12.1-12.1 12.1z" fill="#000000" style="fill: rgb(59, 59, 85);"></path><path d="m31.9 14.3c1.1 0 2-.9 2-2 0-1.6 0-3.2 0-4.8 0-.2 0-.5 0-.7 0-1-.9-2-2-2s-2 .9-2 2v4.8.7c0 1.1 1 2.1 2 2z" fill="#000000" style="fill: rgb(59, 59, 85);"></path><path d="m31.9 49.7c-1.1 0-2 .9-2 2v4.8.7c0 1 .9 2 2 2s2-.9 2-2c0-1.6 0-3.2 0-4.8 0-.2 0-.5 0-.7 0-1.1-.9-2.1-2-2z" fill="#000000" style="fill: rgb(59, 59, 85);"></path><path d="m57.6 30c-1.6 0-3.2 0-4.8 0-.2 0-.5 0-.7 0-1 0-2 .9-2 2s.9 2 2 2h4.8.7c1 0 2-.9 2-2s-.8-2-2-2z" fill="#000000" style="fill: rgb(59, 59, 85);"></path><path d="m11.9 30c-1.6 0-3.2 0-4.8 0-.2 0-.5 0-.7 0-1 0-2 .9-2 2s.9 2 2 2h4.8.7c1 0 2-.9 2-2-.1-1.1-.9-2-2-2z" fill="#000000" style="fill: rgb(59, 59, 85);"></path></g></svg>